<?xml version="1.0" encoding="utf-8"?>
<!-- Generator: Adobe Illustrator 21.0.0, SVG Export Plug-In . SVG Version: 6.00 Build 0)  -->
<svg version="1.1" id="Layer_1" xmlns="http://www.w3.org/2000/svg" xmlns:xlink="http://www.w3.org/1999/xlink" x="0px" y="0px"
	 viewBox="0 0 182 171.9" style="enable-background:new 0 0 182 171.9;" xml:space="preserve">
<style type="text/css">
	.st0{fill:#014458;}
	.st1{opacity:0.45;}
	.st2{opacity:8.000000e-02;}
	.st3{fill:#226071;}
	.st4{fill:#0E272E;}
	.st5{fill:#FFFFFF;}
</style>
<g>
	<g>
		<path d="M23.7,149.4h-7.2V170h-5.7v-20.6H3.7v-4.6h20V149.4z"/>
		<path d="M41.6,170h-5.3v-2.6h-0.1c-1.2,2-3,3-5.4,3c-1.7,0-3.1-0.5-4.1-1.5s-1.5-2.3-1.5-4c0-3.5,2.1-5.5,6.2-6l4.9-0.7
			c0-2-1.1-3-3.2-3c-2.1,0-4.2,0.6-6.1,1.9v-4.2c0.8-0.4,1.8-0.8,3.2-1.1s2.6-0.5,3.7-0.5c5.1,0,7.7,2.6,7.7,7.7V170z M36.3,162.7
			v-1.2l-3.3,0.4c-1.8,0.2-2.7,1-2.7,2.4c0,0.6,0.2,1.2,0.7,1.6s1,0.6,1.8,0.6c1,0,1.9-0.4,2.5-1.1S36.3,163.8,36.3,162.7z"/>
		<path d="M44.8,169.6v-4.5c0.9,0.6,1.8,1,2.7,1.2s1.8,0.4,2.6,0.4c1,0,1.8-0.1,2.3-0.4s0.9-0.7,0.9-1.2c0-0.4-0.1-0.6-0.4-0.9
			s-0.6-0.4-1-0.6s-0.8-0.3-1.3-0.5s-0.9-0.3-1.4-0.5c-0.7-0.3-1.3-0.6-1.9-0.9s-1-0.7-1.4-1.1s-0.7-0.9-0.8-1.4s-0.3-1.2-0.3-1.9
			c0-1,0.2-1.9,0.7-2.6s1-1.3,1.8-1.8s1.6-0.8,2.5-1s1.9-0.3,2.9-0.3c0.8,0,1.6,0.1,2.4,0.2s1.6,0.3,2.4,0.5v4.3
			c-0.7-0.4-1.5-0.7-2.3-0.9s-1.6-0.3-2.4-0.3c-0.4,0-0.7,0-1,0.1s-0.6,0.2-0.9,0.3s-0.4,0.3-0.6,0.5s-0.2,0.4-0.2,0.7
			c0,0.3,0.1,0.6,0.3,0.8s0.5,0.4,0.8,0.6s0.7,0.3,1.1,0.5s0.8,0.3,1.2,0.4c0.7,0.3,1.4,0.5,2,0.8s1.1,0.7,1.5,1.1s0.8,0.9,1,1.4
			s0.3,1.2,0.3,2c0,1.1-0.2,2-0.7,2.7s-1.1,1.4-1.8,1.8s-1.7,0.8-2.7,1s-2,0.3-3.1,0.3C48.3,170.5,46.5,170.2,44.8,169.6z"/>
		<path d="M79.8,170h-6.7l-5.7-8.9h-0.1v8.9h-5.6v-26.6h5.6v17h0.1l5.4-8.3h6.6l-6.5,8.5L79.8,170z"/>
		<path d="M82.5,170v-25.2h9.2c2.8,0,5,0.5,6.5,1.5s2.3,2.5,2.3,4.4c0,1.4-0.5,2.5-1.4,3.6s-2.1,1.7-3.5,2.1v0.1
			c1.8,0.2,3.2,0.9,4.3,2s1.6,2.4,1.6,4c0,2.3-0.8,4.1-2.5,5.5s-3.9,2-6.8,2H82.5z M88.1,149v6h2.5c1.2,0,2.1-0.3,2.8-0.9
			s1-1.4,1-2.3c0-1.9-1.4-2.8-4.1-2.8H88.1z M88.1,159.2v6.6h3.1c1.3,0,2.3-0.3,3.1-0.9s1.1-1.4,1.1-2.5c0-1-0.4-1.8-1.1-2.4
			s-1.8-0.9-3.1-0.9H88.1z"/>
		<path d="M113.6,170.5c-3,0-5.4-0.8-7.1-2.5s-2.6-4-2.6-6.8c0-3,0.9-5.3,2.7-7s4.2-2.5,7.2-2.5c3,0,5.3,0.8,7,2.5s2.5,3.9,2.5,6.7
			c0,3-0.9,5.3-2.6,7.1S116.6,170.5,113.6,170.5z M113.7,155.8c-1.3,0-2.3,0.5-3.1,1.4s-1.1,2.2-1.1,3.8c0,3.5,1.4,5.2,4.2,5.2
			c2.7,0,4-1.8,4-5.3C117.7,157.5,116.4,155.8,113.7,155.8z"/>
		<path d="M142,170h-5.3v-2.6h-0.1c-1.2,2-3,3-5.4,3c-1.7,0-3.1-0.5-4.1-1.5s-1.5-2.3-1.5-4c0-3.5,2.1-5.5,6.2-6l4.9-0.7
			c0-2-1.1-3-3.2-3c-2.1,0-4.2,0.6-6.1,1.9v-4.2c0.8-0.4,1.8-0.8,3.2-1.1s2.6-0.5,3.7-0.5c5.1,0,7.7,2.6,7.7,7.7V170z M136.8,162.7
			v-1.2l-3.3,0.4c-1.8,0.2-2.7,1-2.7,2.4c0,0.6,0.2,1.2,0.7,1.6s1,0.6,1.8,0.6c1,0,1.9-0.4,2.5-1.1S136.8,163.8,136.8,162.7z"/>
		<path d="M158.1,157c-0.7-0.4-1.4-0.5-2.3-0.5c-1.2,0-2.2,0.4-2.8,1.3s-1,2.1-1,3.6v8.6h-5.6v-18h5.6v3.3h0.1
			c0.9-2.4,2.5-3.7,4.7-3.7c0.6,0,1,0.1,1.4,0.2V157z"/>
		<path d="M178.3,170h-5.6v-2.5h-0.1c-1.3,1.9-3.1,2.9-5.6,2.9c-2.3,0-4.1-0.8-5.4-2.4s-2.1-3.8-2.1-6.7c0-3,0.8-5.4,2.3-7.2
			s3.5-2.7,5.9-2.7c2.3,0,3.9,0.8,4.9,2.5h0.1v-10.7h5.6V170z M172.9,161.3v-1.4c0-1.2-0.3-2.1-1-2.9s-1.6-1.2-2.7-1.2
			c-1.2,0-2.2,0.5-2.9,1.5s-1,2.3-1,4c0,1.6,0.3,2.8,1,3.7s1.6,1.3,2.8,1.3c1.1,0,2-0.5,2.8-1.4S172.9,162.8,172.9,161.3z"/>
	</g>
</g>
<g>
	<g>
		<g>
			<g>
				<path class="st0" d="M145.9,46.5C140.9,20.8,118.2,1.4,91,1.4c-30.9,0-56,25.1-56,56c0,0.2,0,0.5,0,0.7c0.1,4,0.5,7.8,1.4,11.5
					c5.6,25,27.9,43.8,54.6,43.8c30.7,0,55.7-24.8,56-55.4c0-0.2,0-0.4,0-0.6C147,53.7,146.6,50,145.9,46.5z"/>
			</g>
			<g class="st1">
				<path d="M91,112.3c-26.7,0-49-18.7-54.6-43.8c-0.8-3.7-1.3-7.6-1.4-11.5c0,0.1,0,0.3,0,0.4c0,4.2,0.5,8.3,1.4,12.2
					c5.6,25,27.9,43.8,54.6,43.8c30.9,0,56-25.1,56-56c0-0.2,0-0.4,0-0.5C146.7,87.5,121.7,112.3,91,112.3z"/>
			</g>
			<path class="st2" d="M70.1,77.1l47.8,28.3c0,0,22.8-12,28-38.2l-33.1-31.6L70.1,77.1z"/>
		</g>
	</g>
	<g>
		<g>
			<g>
				<path class="st3" d="M69.1,43.2v30.9c0,2.8,2.3,5.1,5.1,5.1h33.4c2.8,0,5.1-2.3,5.1-5.1V43.2H69.1z"/>
			</g>
			<g>
				<rect x="69.1" y="35.5" class="st4" width="43.7" height="7.7"/>
			</g>
			<path class="st5" d="M93.6,73.2h-5.2c-0.6,0-1-0.4-1-1V67c0-0.6,0.4-1,1-1h5.2c0.6,0,1,0.4,1,1v5.2
				C94.6,72.7,94.2,73.2,93.6,73.2z"/>
			<path class="st5" d="M93.6,63.6h-5.2c-0.6,0-1-0.4-1-1v-5.2c0-0.6,0.4-1,1-1h5.2c0.6,0,1,0.4,1,1v5.2
				C94.6,63.1,94.2,63.6,93.6,63.6z"/>
			<g>
				<path class="st4" d="M94.2,67.7l-0.4-0.4c-0.1-0.1-0.3-0.1-0.4,0l-3.3,3.3L88.7,69c-0.1-0.1-0.3-0.1-0.4,0l-0.4,0.4
					c-0.1,0.1-0.1,0.3,0,0.4l2.1,2.1c0.1,0.1,0.3,0.1,0.4,0l3.9-3.9C94.3,68,94.3,67.8,94.2,67.7z"/>
			</g>
			<g>
				<path class="st4" d="M94.2,58.1l-0.4-0.4c-0.1-0.1-0.3-0.1-0.4,0l-3.3,3.3l-1.5-1.5c-0.1-0.1-0.3-0.1-0.4,0l-0.4,0.4
					c-0.1,0.1-0.1,0.3,0,0.4l2.1,2.1c0.1,0.1,0.3,0.1,0.4,0l3.9-3.9C94.3,58.4,94.3,58.2,94.2,58.1z"/>
			</g>
			<g>
				<path class="st5" d="M108,54h-5.2c-0.6,0-1-0.4-1-1v-5.2c0-0.6,0.4-1,1-1h5.2c0.6,0,1,0.4,1,1V53C109,53.5,108.5,54,108,54z"/>
				<g>
					<path class="st4" d="M108.6,48.5l-0.4-0.4c-0.1-0.1-0.3-0.1-0.4,0l-3.3,3.3l-1.5-1.5c-0.1-0.1-0.3-0.1-0.4,0l-0.4,0.4
						c-0.1,0.1-0.1,0.3,0,0.4l2.1,2.1c0.1,0.1,0.3,0.1,0.4,0l3.9-3.9C108.7,48.8,108.7,48.6,108.6,48.5z"/>
				</g>
				<g>
					<path class="st5" d="M93.6,54h-5.2c-0.6,0-1-0.4-1-1v-5.2c0-0.6,0.4-1,1-1h5.2c0.6,0,1,0.4,1,1V53C94.6,53.5,94.2,54,93.6,54z"
						/>
					<g>
						<path class="st4" d="M90.2,52.2l-1.7-1.7c-0.1-0.1-0.1-0.3,0-0.4l0.4-0.4c0.1-0.1,0.3-0.1,0.4,0l1.1,1.1l2.4-2.4
							c0.1-0.1,0.3-0.1,0.4,0l0.4,0.4c0.1,0.1,0.1,0.3,0,0.4l-3,3C90.4,52.3,90.3,52.3,90.2,52.2L90.2,52.2z"/>
					</g>
				</g>
				<g>
					<path class="st5" d="M79.2,54H74c-0.6,0-1-0.4-1-1v-5.2c0-0.6,0.4-1,1-1h5.2c0.6,0,1,0.4,1,1V53C80.2,53.5,79.8,54,79.2,54z"/>
					<g>
						<path class="st4" d="M79.8,48.5L79.4,48c-0.1-0.1-0.3-0.1-0.4,0l-3.3,3.3l-1.5-1.5c-0.1-0.1-0.3-0.1-0.4,0l-0.4,0.4
							c-0.1,0.1-0.1,0.3,0,0.4l2.1,2.1c0.1,0.1,0.3,0.1,0.4,0l3.9-3.9C79.9,48.8,79.9,48.6,79.8,48.5z"/>
					</g>
				</g>
			</g>
		</g>
	</g>
</g>
</svg>
