<?xml version="1.0" encoding="utf-8"?>
<!-- Generator: Adobe Illustrator 21.0.0, SVG Export Plug-In . SVG Version: 6.00 Build 0)  -->
<svg version="1.1" id="Layer_1" xmlns="http://www.w3.org/2000/svg" xmlns:xlink="http://www.w3.org/1999/xlink" x="0px" y="0px"
	 viewBox="0 0 326 120" style="enable-background:new 0 0 326 120;" xml:space="preserve">
<style type="text/css">
	.st0{fill:#014458;}
	.st1{opacity:0.45;}
	.st2{opacity:8.000000e-02;}
	.st3{fill:#226071;}
	.st4{fill:#0E272E;}
	.st5{fill:#FFFFFF;}
</style>
<g>
	<path d="M166.7,52.5h-7.2v20.6h-5.7V52.5h-7.2v-4.6h20V52.5z"/>
	<path d="M184.6,73.1h-5.3v-2.6h-0.1c-1.2,2-3,3-5.4,3c-1.7,0-3.1-0.5-4.1-1.5s-1.5-2.3-1.5-4c0-3.5,2.1-5.5,6.2-6l4.9-0.7
		c0-2-1.1-3-3.2-3c-2.1,0-4.2,0.6-6.1,1.9v-4.2c0.8-0.4,1.8-0.8,3.2-1.1s2.6-0.5,3.7-0.5c5.1,0,7.7,2.6,7.7,7.7V73.1z M179.3,65.8
		v-1.2l-3.3,0.4c-1.8,0.2-2.7,1-2.7,2.4c0,0.6,0.2,1.2,0.7,1.6s1,0.6,1.8,0.6c1,0,1.9-0.4,2.5-1.1S179.3,66.9,179.3,65.8z"/>
	<path d="M187.8,72.6v-4.5c0.9,0.6,1.8,1,2.7,1.2s1.8,0.4,2.6,0.4c1,0,1.8-0.1,2.3-0.4s0.9-0.7,0.9-1.2c0-0.4-0.1-0.6-0.4-0.9
		s-0.6-0.4-1-0.6s-0.8-0.3-1.3-0.5s-0.9-0.3-1.4-0.5c-0.7-0.3-1.3-0.6-1.9-0.9s-1-0.7-1.4-1.1s-0.7-0.9-0.8-1.4s-0.3-1.2-0.3-1.9
		c0-1,0.2-1.9,0.7-2.6s1-1.3,1.8-1.8s1.6-0.8,2.5-1s1.9-0.3,2.9-0.3c0.8,0,1.6,0.1,2.4,0.2s1.6,0.3,2.4,0.5v4.3
		c-0.7-0.4-1.5-0.7-2.3-0.9s-1.6-0.3-2.4-0.3c-0.4,0-0.7,0-1,0.1s-0.6,0.2-0.9,0.3s-0.4,0.3-0.6,0.5s-0.2,0.4-0.2,0.7
		c0,0.3,0.1,0.6,0.3,0.8s0.5,0.4,0.8,0.6s0.7,0.3,1.1,0.5s0.8,0.3,1.2,0.4c0.7,0.3,1.4,0.5,2,0.8s1.1,0.7,1.5,1.1s0.8,0.9,1,1.4
		s0.3,1.2,0.3,2c0,1.1-0.2,2-0.7,2.7s-1.1,1.4-1.8,1.8s-1.7,0.8-2.7,1s-2,0.3-3.1,0.3C191.3,73.5,189.5,73.2,187.8,72.6z"/>
	<path d="M222.8,73.1h-6.7l-5.7-8.9h-0.1v8.9h-5.6V46.5h5.6v17h0.1l5.4-8.3h6.6l-6.5,8.5L222.8,73.1z"/>
	<path d="M225.5,73.1V47.9h9.2c2.8,0,5,0.5,6.5,1.5s2.3,2.5,2.3,4.4c0,1.4-0.5,2.5-1.4,3.6s-2.1,1.7-3.5,2.1v0.1
		c1.8,0.2,3.2,0.9,4.3,2s1.6,2.4,1.6,4c0,2.3-0.8,4.1-2.5,5.5s-3.9,2-6.8,2H225.5z M231.1,52.1v6h2.5c1.2,0,2.1-0.3,2.8-0.9
		s1-1.4,1-2.3c0-1.9-1.4-2.8-4.1-2.8H231.1z M231.1,62.3v6.6h3.1c1.3,0,2.3-0.3,3.1-0.9s1.1-1.4,1.1-2.5c0-1-0.4-1.8-1.1-2.4
		s-1.8-0.9-3.1-0.9H231.1z"/>
	<path d="M256.6,73.5c-3,0-5.4-0.8-7.1-2.5s-2.6-4-2.6-6.8c0-3,0.9-5.3,2.7-7s4.2-2.5,7.2-2.5c3,0,5.3,0.8,7,2.5s2.5,3.9,2.5,6.7
		c0,3-0.9,5.3-2.6,7.1S259.6,73.5,256.6,73.5z M256.7,58.9c-1.3,0-2.3,0.5-3.1,1.4s-1.1,2.2-1.1,3.8c0,3.5,1.4,5.2,4.2,5.2
		c2.7,0,4-1.8,4-5.3C260.7,60.6,259.4,58.9,256.7,58.9z"/>
	<path d="M285,73.1h-5.3v-2.6h-0.1c-1.2,2-3,3-5.4,3c-1.7,0-3.1-0.5-4.1-1.5s-1.5-2.3-1.5-4c0-3.5,2.1-5.5,6.2-6l4.9-0.7
		c0-2-1.1-3-3.2-3c-2.1,0-4.2,0.6-6.1,1.9v-4.2c0.8-0.4,1.8-0.8,3.2-1.1s2.6-0.5,3.7-0.5c5.1,0,7.7,2.6,7.7,7.7V73.1z M279.8,65.8
		v-1.2l-3.3,0.4c-1.8,0.2-2.7,1-2.7,2.4c0,0.6,0.2,1.2,0.7,1.6s1,0.6,1.8,0.6c1,0,1.9-0.4,2.5-1.1S279.8,66.9,279.8,65.8z"/>
	<path d="M301.1,60.1c-0.7-0.4-1.4-0.5-2.3-0.5c-1.2,0-2.2,0.4-2.8,1.3s-1,2.1-1,3.6v8.6h-5.6v-18h5.6v3.3h0.1
		c0.9-2.4,2.5-3.7,4.7-3.7c0.6,0,1,0.1,1.4,0.2V60.1z"/>
	<path d="M321.3,73.1h-5.6v-2.5h-0.1c-1.3,1.9-3.1,2.9-5.6,2.9c-2.3,0-4.1-0.8-5.4-2.4s-2.1-3.8-2.1-6.7c0-3,0.8-5.4,2.3-7.2
		s3.5-2.7,5.9-2.7c2.3,0,3.9,0.8,4.9,2.5h0.1V46.5h5.6V73.1z M315.9,64.4V63c0-1.2-0.3-2.1-1-2.9s-1.6-1.2-2.7-1.2
		c-1.2,0-2.2,0.5-2.9,1.5s-1,2.3-1,4c0,1.6,0.3,2.8,1,3.7s1.6,1.3,2.8,1.3c1.1,0,2-0.5,2.8-1.4S315.9,65.8,315.9,64.4z"/>
</g>
<g>
	<g>
		<g>
			<g>
				<path class="st0" d="M115.6,50.2C110.6,24.4,87.9,5,60.7,5c-30.9,0-56,25.1-56,56c0,0.2,0,0.5,0,0.7c0.1,4,0.5,7.8,1.4,11.5
					C11.6,98.3,34,117,60.7,117c30.7,0,55.7-24.8,56-55.4c0-0.2,0-0.4,0-0.6C116.7,57.3,116.3,53.7,115.6,50.2z"/>
			</g>
			<g class="st1">
				<path d="M60.7,115.9c-26.7,0-49-18.7-54.6-43.8c-0.8-3.7-1.3-7.6-1.4-11.5c0,0.1,0,0.3,0,0.4c0,4.2,0.5,8.3,1.4,12.2
					C11.6,98.3,34,117,60.7,117c30.9,0,56-25.1,56-56c0-0.2,0-0.4,0-0.5C116.4,91.1,91.4,115.9,60.7,115.9z"/>
			</g>
			<path class="st2" d="M39.8,80.7L87.7,109c0,0,22.8-12,28-38.2L82.5,39.1L39.8,80.7z"/>
		</g>
	</g>
	<g>
		<g>
			<g>
				<path class="st3" d="M38.8,46.9v30.9c0,2.8,2.3,5.1,5.1,5.1h33.4c2.8,0,5.1-2.3,5.1-5.1V46.9H38.8z"/>
			</g>
			<g>
				<rect x="38.8" y="39.1" class="st4" width="43.7" height="7.7"/>
			</g>
			<path class="st5" d="M64.3,76.8h-7.1c0,0,0,0,0,0v-7.1c0,0,0,0,0,0h7.1c0,0,0,0,0,0L64.3,76.8C64.3,76.8,64.3,76.8,64.3,76.8z"/>
			<path class="st5" d="M64.3,67.2h-7.1c0,0,0,0,0,0V60c0,0,0,0,0,0h7.1c0,0,0,0,0,0L64.3,67.2C64.3,67.2,64.3,67.2,64.3,67.2z"/>
			<g>
				<path class="st4" d="M63.9,71.3l-0.4-0.4c-0.1-0.1-0.3-0.1-0.4,0l-3.3,3.3l-1.5-1.5c-0.1-0.1-0.3-0.1-0.4,0l-0.4,0.4
					c-0.1,0.1-0.1,0.3,0,0.4l2.1,2.1c0.1,0.1,0.3,0.1,0.4,0l3.9-3.9C64,71.6,64,71.4,63.9,71.3z"/>
			</g>
			<g>
				<path class="st4" d="M63.9,61.7l-0.4-0.4c-0.1-0.1-0.3-0.1-0.4,0l-3.3,3.3L58.4,63c-0.1-0.1-0.3-0.1-0.4,0l-0.4,0.4
					c-0.1,0.1-0.1,0.3,0,0.4l2.1,2.1c0.1,0.1,0.3,0.1,0.4,0l3.9-3.9C64,62,64,61.8,63.9,61.7z"/>
			</g>
			<g>
				<path class="st5" d="M78.7,57.6h-7.1c0,0,0,0,0,0v-7.1c0,0,0,0,0,0h7.1c0,0,0,0,0,0L78.7,57.6C78.7,57.6,78.7,57.6,78.7,57.6z"
					/>
				<g>
					<path class="st4" d="M78.3,52.1l-0.4-0.4c-0.1-0.1-0.3-0.1-0.4,0l-3.3,3.3l-1.5-1.5c-0.1-0.1-0.3-0.1-0.4,0L72,53.9
						c-0.1,0.1-0.1,0.3,0,0.4l2.1,2.1c0.1,0.1,0.3,0.1,0.4,0l3.9-3.9C78.4,52.4,78.4,52.2,78.3,52.1z"/>
				</g>
				<g>
					<path class="st5" d="M64.3,57.6h-7.1c0,0,0,0,0,0v-7.1c0,0,0,0,0,0h7.1c0,0,0,0,0,0L64.3,57.6C64.3,57.6,64.3,57.6,64.3,57.6z"
						/>
					<g>
						<path class="st4" d="M59.9,55.8l-1.7-1.7c-0.1-0.1-0.1-0.3,0-0.4l0.4-0.4c0.1-0.1,0.3-0.1,0.4,0l1.1,1.1l2.4-2.4
							c0.1-0.1,0.3-0.1,0.4,0l0.4,0.4c0.1,0.1,0.1,0.3,0,0.4l-3,3C60.1,55.9,60,55.9,59.9,55.8L59.9,55.8z"/>
					</g>
				</g>
				<g>
					<path class="st5" d="M49.9,57.6h-7.1c0,0,0,0,0,0v-7.1c0,0,0,0,0,0h7.1c0,0,0,0,0,0L49.9,57.6C49.9,57.6,49.9,57.6,49.9,57.6z"
						/>
					<g>
						<path class="st4" d="M49.5,52.1l-0.4-0.4c-0.1-0.1-0.3-0.1-0.4,0l-3.3,3.3L44,53.4c-0.1-0.1-0.3-0.1-0.4,0l-0.4,0.4
							c-0.1,0.1-0.1,0.3,0,0.4l2.1,2.1c0.1,0.1,0.3,0.1,0.4,0l3.9-3.9C49.6,52.4,49.6,52.2,49.5,52.1z"/>
					</g>
				</g>
			</g>
		</g>
	</g>
</g>
</svg>
