<?xml version="1.0" encoding="utf-8"?>
<!-- Generator: Adobe Illustrator 21.0.0, SVG Export Plug-In . SVG Version: 6.00 Build 0)  -->
<svg version="1.1" id="Layer_1" xmlns="http://www.w3.org/2000/svg" xmlns:xlink="http://www.w3.org/1999/xlink" x="0px" y="0px"
	 viewBox="0 0 373.7 186.9" style="enable-background:new 0 0 373.7 186.9;" xml:space="preserve">
<g>
	<path d="M19,62.4h-1.4l-1.2-3.1h-4.7l-1.1,3.1H9.1l4.3-11.1h1.3L19,62.4z M16,58.2l-1.7-4.7c-0.1-0.2-0.1-0.4-0.2-0.7h0
		c-0.1,0.3-0.1,0.6-0.2,0.7l-1.7,4.7H16z"/>
	<path d="M25,62.4V51.3h3.2c1,0,1.7,0.2,2.3,0.7s0.8,1.1,0.8,1.8c0,0.6-0.2,1.2-0.5,1.6c-0.3,0.5-0.8,0.8-1.4,1v0
		c0.7,0.1,1.3,0.4,1.8,0.8c0.4,0.5,0.7,1.1,0.7,1.9c0,1-0.3,1.7-1,2.3c-0.7,0.6-1.5,0.9-2.6,0.9H25z M26.3,52.5v3.6h1.3
		c0.7,0,1.3-0.2,1.7-0.5c0.4-0.3,0.6-0.8,0.6-1.5c0-1.1-0.7-1.6-2.1-1.6H26.3z M26.3,57.3v4h1.8c0.8,0,1.4-0.2,1.8-0.5
		c0.4-0.4,0.6-0.9,0.6-1.5c0-1.3-0.9-2-2.7-2H26.3z"/>
	<path d="M46,62c-0.8,0.4-1.8,0.7-3.1,0.7c-1.6,0-2.8-0.5-3.8-1.5c-1-1-1.4-2.4-1.4-4c0-1.8,0.5-3.2,1.6-4.3s2.4-1.6,4.1-1.6
		c1.1,0,1.9,0.2,2.6,0.5V53c-0.8-0.4-1.7-0.7-2.6-0.7c-1.3,0-2.3,0.4-3.1,1.3c-0.8,0.9-1.2,2-1.2,3.4c0,1.4,0.4,2.4,1.1,3.2
		s1.7,1.2,2.9,1.2c1.1,0,2.1-0.2,2.9-0.7V62z"/>
	<path d="M52.6,62.4V51.3h3.1c3.9,0,5.9,1.8,5.9,5.4c0,1.7-0.5,3.1-1.6,4.1c-1.1,1-2.5,1.6-4.4,1.6H52.6z M53.9,52.5v8.8h1.7
		c1.5,0,2.6-0.4,3.4-1.2c0.8-0.8,1.2-1.9,1.2-3.3c0-2.8-1.5-4.3-4.5-4.3H53.9z"/>
	<path d="M74,62.4h-5.9V51.3h5.6v1.2h-4.3v3.7h4v1.2h-4v3.9H74V62.4z"/>
	<path d="M86.1,52.5h-4.3v3.8h4v1.2h-4v4.9h-1.3V51.3h5.6V52.5z"/>
	<path d="M100.9,61.7c-1.1,0.6-2.4,0.9-3.7,0.9c-1.6,0-2.9-0.5-3.8-1.5c-1-1-1.5-2.4-1.5-4.1c0-1.7,0.5-3.1,1.6-4.2s2.5-1.7,4.1-1.7
		c1.2,0,2.2,0.2,3,0.6v1.4c-0.9-0.6-2-0.9-3.2-0.9c-1.2,0-2.3,0.4-3.1,1.3c-0.8,0.9-1.2,2-1.2,3.3c0,1.4,0.4,2.5,1.1,3.3
		s1.7,1.2,3,1.2c0.9,0,1.6-0.2,2.3-0.5v-3.1h-2.4v-1.2h3.7V61.7z"/>
	<path d="M116.1,62.4h-1.3v-5.1h-5.7v5.1h-1.3V51.3h1.3v4.9h5.7v-4.9h1.3V62.4z"/>
	<path d="M125.8,51.3v1.1h-1.1v8.9h1.1v1.1h-3.5v-1.1h1.1v-8.9h-1.1v-1.1H125.8z"/>
	<path d="M134.8,58.5c0,1.3-0.3,2.3-0.8,3.1c-0.6,0.7-1.3,1.1-2.2,1.1c-0.4,0-0.8-0.1-1.1-0.2v-1.3c0.3,0.2,0.6,0.3,1.1,0.3
		c1.2,0,1.8-1,1.8-3v-7.1h1.3V58.5z"/>
	<path d="M149.7,62.4h-1.8l-4.3-5.1c-0.2-0.2-0.3-0.3-0.3-0.4h0v5.5H142V51.3h1.3v5.2h0c0.1-0.1,0.2-0.2,0.3-0.4l4.2-4.8h1.6
		l-4.8,5.3L149.7,62.4z"/>
	<path d="M171.2,62.4h-1.3V55c0-0.6,0-1.3,0.1-2.2h0c-0.1,0.5-0.2,0.9-0.3,1.1l-3.8,8.5h-0.6l-3.8-8.5c-0.1-0.2-0.2-0.6-0.3-1.1h0
		c0,0.4,0.1,1.2,0.1,2.2v7.4h-1.3V51.3h1.7l3.4,7.7c0.3,0.6,0.4,1,0.5,1.3h0c0.2-0.6,0.4-1.1,0.5-1.4l3.5-7.7h1.6V62.4z"/>
	<path d="M187.4,62.4h-1.6l-5.7-8.9c-0.1-0.2-0.3-0.5-0.4-0.7h0c0,0.2,0.1,0.7,0.1,1.5v8h-1.3V51.3h1.7l5.6,8.7
		c0.2,0.4,0.4,0.6,0.4,0.7h0c-0.1-0.3-0.1-0.9-0.1-1.6v-7.8h1.3V62.4z"/>
	<path d="M199.2,62.6c-1.6,0-2.8-0.5-3.8-1.6c-0.9-1-1.4-2.4-1.4-4.1c0-1.8,0.5-3.2,1.4-4.3c1-1.1,2.3-1.6,3.9-1.6
		c1.5,0,2.8,0.5,3.7,1.5s1.4,2.4,1.4,4.1c0,1.8-0.5,3.2-1.4,4.3C202.1,62.1,200.8,62.6,199.2,62.6z M199.3,52.3
		c-1.2,0-2.1,0.4-2.8,1.3c-0.7,0.8-1.1,1.9-1.1,3.3c0,1.4,0.4,2.5,1.1,3.3c0.7,0.8,1.6,1.3,2.8,1.3c1.2,0,2.2-0.4,2.9-1.2
		c0.7-0.8,1.1-1.9,1.1-3.3c0-1.5-0.3-2.6-1-3.4S200.5,52.3,199.3,52.3z"/>
	<path d="M212.3,58.2v4.2H211V51.3h3.1c1.2,0,2.1,0.3,2.8,0.9c0.7,0.6,1,1.4,1,2.4s-0.4,1.9-1.1,2.6c-0.7,0.7-1.7,1-2.9,1H212.3z
		 M212.3,52.5v4.6h1.4c0.9,0,1.6-0.2,2.1-0.6s0.7-1,0.7-1.7c0-1.5-0.9-2.2-2.6-2.2H212.3z"/>
	<path d="M228.6,62.6c-0.3,0-0.7,0-1-0.1c-0.3-0.1-0.7-0.2-1-0.3c-0.3-0.1-0.6-0.3-0.9-0.5c-0.3-0.2-0.6-0.4-0.8-0.7
		c-0.9-1-1.4-2.4-1.4-4.1c0-1.8,0.5-3.2,1.4-4.3c1-1.1,2.3-1.6,4-1.6c1.5,0,2.7,0.5,3.7,1.5c0.9,1,1.4,2.4,1.4,4.1
		c0,0.7-0.1,1.4-0.2,2s-0.4,1.2-0.7,1.7s-0.7,0.9-1.2,1.3c-0.5,0.3-1.1,0.6-1.7,0.7c0.3,0.3,0.5,0.5,0.8,0.8
		c0.2,0.2,0.5,0.4,0.7,0.6c0.2,0.2,0.5,0.3,0.7,0.3c0.3,0.1,0.5,0.1,0.8,0.1c0.1,0,0.2,0,0.3,0s0.2,0,0.3,0c0.1,0,0.2,0,0.3-0.1
		c0.1,0,0.2-0.1,0.3-0.1v1.3c-0.1,0-0.2,0-0.3,0.1s-0.2,0-0.3,0c-0.1,0-0.2,0-0.3,0c-0.1,0-0.2,0-0.3,0c-0.5,0-0.9-0.1-1.3-0.2
		c-0.4-0.1-0.8-0.3-1.1-0.6s-0.7-0.6-1-0.9C229.3,63.4,229,63,228.6,62.6z M228.8,52.3c-1.2,0-2.1,0.4-2.8,1.3
		c-0.7,0.8-1.1,1.9-1.1,3.3c0,1.4,0.4,2.5,1.1,3.3c0.7,0.8,1.6,1.2,2.8,1.2c1.2,0,2.2-0.4,2.9-1.2c0.7-0.8,1.1-1.9,1.1-3.3
		c0-1.5-0.3-2.6-1-3.4C231,52.7,230,52.3,228.8,52.3z"/>
	<path d="M248.5,62.4H247l-1.9-3.1c-0.2-0.3-0.3-0.5-0.5-0.7s-0.3-0.4-0.5-0.5c-0.2-0.1-0.3-0.2-0.5-0.3c-0.2-0.1-0.4-0.1-0.7-0.1
		h-1.1v4.7h-1.3V51.3h3.3c0.5,0,0.9,0.1,1.3,0.2c0.4,0.1,0.8,0.3,1.1,0.6c0.3,0.2,0.5,0.6,0.7,0.9c0.2,0.4,0.3,0.8,0.3,1.3
		c0,0.4-0.1,0.7-0.2,1.1s-0.3,0.6-0.5,0.9c-0.2,0.3-0.5,0.5-0.8,0.6s-0.6,0.3-1,0.4v0c0.2,0.1,0.3,0.2,0.5,0.3
		c0.1,0.1,0.3,0.2,0.4,0.4c0.1,0.1,0.2,0.3,0.4,0.5c0.1,0.2,0.3,0.4,0.4,0.6L248.5,62.4z M241.9,52.5v4h1.8c0.3,0,0.6,0,0.9-0.1
		c0.3-0.1,0.5-0.2,0.7-0.4c0.2-0.2,0.4-0.4,0.5-0.7c0.1-0.3,0.2-0.6,0.2-0.9c0-0.6-0.2-1.1-0.6-1.4c-0.4-0.3-0.9-0.5-1.7-0.5H241.9z
		"/>
	<path d="M253.9,62v-1.5c0.2,0.2,0.4,0.3,0.6,0.4c0.2,0.1,0.5,0.2,0.8,0.3c0.3,0.1,0.5,0.2,0.8,0.2c0.3,0,0.5,0.1,0.8,0.1
		c0.8,0,1.4-0.1,1.8-0.4c0.4-0.3,0.6-0.7,0.6-1.3c0-0.3-0.1-0.6-0.2-0.8s-0.3-0.4-0.5-0.6c-0.2-0.2-0.5-0.4-0.8-0.5
		c-0.3-0.2-0.7-0.3-1-0.5c-0.4-0.2-0.7-0.4-1.1-0.6c-0.3-0.2-0.6-0.4-0.9-0.7c-0.2-0.2-0.4-0.5-0.6-0.8c-0.1-0.3-0.2-0.7-0.2-1.1
		c0-0.5,0.1-0.9,0.3-1.3c0.2-0.4,0.5-0.7,0.9-0.9s0.8-0.4,1.2-0.5c0.5-0.1,0.9-0.2,1.4-0.2c1.1,0,1.9,0.1,2.4,0.4V53
		c-0.7-0.5-1.5-0.7-2.5-0.7c-0.3,0-0.6,0-0.9,0.1c-0.3,0.1-0.5,0.2-0.8,0.3c-0.2,0.1-0.4,0.3-0.5,0.5s-0.2,0.5-0.2,0.8
		c0,0.3,0.1,0.5,0.2,0.7c0.1,0.2,0.3,0.4,0.5,0.6c0.2,0.2,0.5,0.3,0.8,0.5c0.3,0.2,0.6,0.3,1,0.5c0.4,0.2,0.8,0.4,1.1,0.6
		s0.7,0.5,0.9,0.7c0.3,0.3,0.5,0.6,0.6,0.9c0.2,0.3,0.2,0.7,0.2,1.1c0,0.5-0.1,1-0.3,1.4c-0.2,0.4-0.5,0.7-0.9,0.9
		c-0.4,0.2-0.8,0.4-1.3,0.5c-0.5,0.1-1,0.2-1.5,0.2c-0.2,0-0.4,0-0.7,0c-0.3,0-0.5-0.1-0.8-0.1c-0.3-0.1-0.5-0.1-0.8-0.2
		S254,62.1,253.9,62z"/>
	<path d="M273.7,52.5h-3.2v9.9h-1.3v-9.9H266v-1.2h7.7V52.5z"/>
	<path d="M288,57.9c0,3.1-1.4,4.7-4.2,4.7c-2.7,0-4-1.5-4-4.5v-6.8h1.3V58c0,2.3,1,3.4,2.9,3.4c1.9,0,2.8-1.1,2.8-3.3v-6.8h1.3V57.9
		z"/>
	<path d="M303.3,51.3l-4.1,11.1h-1.4l-4-11.1h1.4l3.1,8.8c0.1,0.3,0.2,0.6,0.2,1h0c0-0.3,0.1-0.6,0.3-1l3.1-8.8H303.3z"/>
	<path d="M322.5,51.3l-3.1,11.1h-1.5l-2.3-8.1c-0.1-0.3-0.2-0.7-0.2-1.1h0c0,0.4-0.1,0.8-0.2,1.1l-2.3,8.1h-1.5L308,51.3h1.4
		l2.4,8.5c0.1,0.4,0.2,0.7,0.2,1.1h0c0-0.3,0.1-0.6,0.2-1.1l2.5-8.5h1.2l2.4,8.6c0.1,0.3,0.1,0.6,0.2,1h0c0-0.3,0.1-0.6,0.2-1.1
		l2.3-8.6H322.5z"/>
	<path d="M336.1,62.4h-1.6l-2.6-4.3c-0.1-0.1-0.2-0.3-0.3-0.6h0c-0.1,0.1-0.1,0.3-0.3,0.6l-2.6,4.3h-1.6l3.7-5.6l-3.4-5.5h1.6
		l2.3,3.9c0.2,0.3,0.3,0.5,0.4,0.8h0c0.2-0.3,0.3-0.6,0.4-0.8l2.4-3.9h1.5l-3.5,5.5L336.1,62.4z"/>
	<path d="M349.4,51.3l-3.7,7v4.1h-1.3v-4.1l-3.6-7h1.5l2.5,5c0,0.1,0.1,0.3,0.3,0.7h0c0.1-0.2,0.1-0.4,0.3-0.7l2.6-5H349.4z"/>
	<path d="M362.5,51.6l-6.5,9.6h6.4v1.2h-8.3v-0.4l6.5-9.6h-5.9v-1.2h7.9V51.6z"/>
	<path d="M16.6,81.5h-6.3v-1.1h2.5v-8.6l-2.6,0.8v-1.2l3.8-1.2v10.2h2.5V81.5z"/>
	<path d="M29.3,81.5h-6.7v-1.1l3.2-3.2c0.8-0.8,1.4-1.5,1.8-2.1c0.4-0.6,0.5-1.1,0.5-1.8c0-0.6-0.2-1.1-0.6-1.5
		c-0.4-0.4-0.9-0.5-1.6-0.5c-1,0-1.9,0.4-2.9,1.3v-1.3c0.9-0.7,1.9-1,3-1c1,0,1.8,0.3,2.3,0.8c0.6,0.5,0.9,1.3,0.9,2.2
		c0,0.7-0.2,1.4-0.6,2.1c-0.4,0.7-1.1,1.5-2.1,2.5l-2.6,2.5v0h5.2V81.5z"/>
	<path d="M35.8,81.1v-1.4c0.8,0.6,1.6,0.9,2.6,0.9c0.8,0,1.4-0.2,1.9-0.6c0.5-0.4,0.7-0.9,0.7-1.6c0-1.5-1-2.2-3.1-2.2h-0.9v-1.1
		h0.9c1.8,0,2.8-0.7,2.8-2c0-1.3-0.7-1.9-2.1-1.9c-0.8,0-1.5,0.3-2.2,0.8v-1.2c0.7-0.4,1.6-0.6,2.5-0.6c0.9,0,1.7,0.2,2.2,0.7
		c0.6,0.5,0.8,1.1,0.8,1.9c0,1.5-0.7,2.4-2.2,2.8v0c0.8,0.1,1.4,0.4,1.9,0.8s0.7,1.1,0.7,1.8c0,1-0.4,1.8-1.1,2.4
		c-0.7,0.6-1.7,0.9-2.8,0.9C37.2,81.7,36.4,81.5,35.8,81.1z"/>
	<path d="M55.7,78.5h-1.4v3H53v-3h-5.2v-0.8l4.9-7.3h1.5v7.1h1.4V78.5z M53,77.5v-4.8c0-0.3,0-0.7,0-1.1h0c-0.1,0.2-0.2,0.5-0.4,0.9
		l-3.4,5.1H53z"/>
	<path d="M61.8,81.2v-1.3c0.8,0.5,1.5,0.7,2.3,0.7s1.4-0.2,1.9-0.7s0.7-1,0.7-1.8c0-0.7-0.2-1.3-0.7-1.7c-0.5-0.4-1.2-0.6-2.1-0.6
		c-0.3,0-0.9,0-1.7,0.1v-5.6h5.4v1.1h-4.2v3.3c0.3,0,0.7,0,0.9,0c1.2,0,2.1,0.3,2.8,0.9s1,1.4,1,2.5c0,1.1-0.4,1.9-1,2.6
		c-0.7,0.7-1.7,1-2.9,1C63.1,81.7,62.3,81.5,61.8,81.2z"/>
	<path d="M80.7,70.5v1.2c-0.6-0.3-1.2-0.4-1.8-0.4c-1,0-1.8,0.4-2.4,1.3c-0.6,0.9-0.9,2.1-0.9,3.5h0c0.5-1,1.4-1.6,2.5-1.6
		c1,0,1.7,0.3,2.3,0.9c0.6,0.6,0.9,1.5,0.9,2.5c0,1.1-0.3,2-1,2.7c-0.7,0.7-1.5,1-2.5,1c-1.1,0-2-0.4-2.6-1.3c-0.6-0.9-1-2.1-1-3.7
		c0-1.9,0.4-3.5,1.2-4.7c0.8-1.2,1.9-1.7,3.3-1.7C79.6,70.2,80.2,70.3,80.7,70.5z M77.9,75.6c-0.7,0-1.2,0.2-1.6,0.7
		c-0.4,0.4-0.6,1-0.6,1.6c0,0.8,0.2,1.4,0.6,1.9c0.4,0.5,0.9,0.8,1.6,0.8c0.6,0,1.2-0.2,1.5-0.7c0.4-0.5,0.6-1.1,0.6-1.8
		c0-0.8-0.2-1.4-0.6-1.8C79.1,75.8,78.6,75.6,77.9,75.6z"/>
	<path d="M94.2,70.8l-4.4,10.7h-1.3l4.2-10H87v-1.1h7.2V70.8z"/>
	<path d="M102.4,75.7L102.4,75.7c-1.3-0.7-2-1.5-2-2.7c0-0.8,0.3-1.5,0.9-2c0.6-0.5,1.4-0.8,2.4-0.8c0.9,0,1.6,0.2,2.1,0.7
		c0.6,0.5,0.8,1.1,0.8,1.9c0,1.2-0.7,2.2-2.1,2.9v0c1.6,0.6,2.4,1.6,2.4,3c0,0.9-0.3,1.7-1,2.2c-0.7,0.5-1.6,0.8-2.8,0.8
		c-1,0-1.7-0.3-2.3-0.8c-0.6-0.5-0.9-1.2-0.9-2.1C100,77.3,100.8,76.3,102.4,75.7z M103.5,76.3c-1.4,0.6-2.1,1.4-2.1,2.4
		c0,0.6,0.2,1,0.6,1.4c0.4,0.4,1,0.5,1.6,0.5c0.6,0,1.2-0.2,1.6-0.5c0.4-0.3,0.6-0.8,0.6-1.3C105.8,77.6,105,76.8,103.5,76.3z
		 M105.4,72.9c0-0.5-0.2-0.9-0.5-1.2s-0.8-0.4-1.3-0.4c-0.5,0-1,0.2-1.3,0.5s-0.5,0.7-0.5,1.2c0,1,0.6,1.7,1.8,2.2
		C104.8,74.6,105.4,73.9,105.4,72.9z"/>
	<path d="M113.5,81.3v-1.2c0.6,0.4,1.3,0.5,2,0.5c1,0,1.8-0.4,2.4-1.2c0.6-0.8,0.8-2,0.8-3.5c0,0,0,0,0,0c-0.5,1-1.3,1.4-2.5,1.4
		c-1,0-1.7-0.3-2.3-1c-0.6-0.6-0.9-1.5-0.9-2.5c0-1.1,0.3-2,1-2.7c0.7-0.7,1.5-1,2.6-1c1.1,0,1.9,0.4,2.6,1.3s0.9,2.1,0.9,3.8
		c0,2.1-0.4,3.6-1.2,4.7c-0.8,1.1-1.9,1.7-3.3,1.7C114.7,81.7,114,81.5,113.5,81.3z M116.3,71.3c-0.6,0-1.1,0.2-1.5,0.7
		s-0.6,1-0.6,1.8c0,0.8,0.2,1.4,0.6,1.8c0.4,0.4,0.9,0.7,1.6,0.7c0.6,0,1.1-0.2,1.5-0.6c0.4-0.4,0.6-0.9,0.6-1.5
		c0-0.8-0.2-1.5-0.6-2.1C117.5,71.5,117,71.3,116.3,71.3z"/>
	<path d="M18.2,94.7c0,0.8-0.2,1.4-0.6,1.8c-0.4,0.4-0.9,0.6-1.5,0.6c-0.6,0-1.2-0.3-2.1-0.8c-0.5-0.3-0.9-0.5-1.2-0.5
		c-0.7,0-1.1,0.5-1.1,1.4h-1c0-0.7,0.2-1.3,0.6-1.8c0.4-0.4,0.9-0.6,1.6-0.6c0.5,0,1.2,0.2,1.8,0.7c0.7,0.5,1.2,0.7,1.5,0.7
		c0.3,0,0.6-0.1,0.8-0.4c0.2-0.3,0.3-0.6,0.3-1H18.2z"/>
	<path d="M22.1,100.7c-0.2,0-0.4-0.1-0.6-0.2c-0.2-0.2-0.3-0.4-0.3-0.6s0.1-0.4,0.3-0.6s0.4-0.3,0.6-0.3c0.2,0,0.4,0.1,0.6,0.3
		s0.3,0.4,0.3,0.6s-0.1,0.4-0.3,0.6C22.5,100.6,22.3,100.7,22.1,100.7z M22.7,89.4l-0.1,8h-1l-0.1-8H22.7z"/>
	<path d="M33.3,97.3L33.3,97.3c-0.4,1.2-1.2,1.8-2.3,1.8c-0.7,0-1.3-0.3-1.7-0.8c-0.4-0.5-0.6-1.2-0.6-2.1c0-1.2,0.3-2.1,0.9-2.9
		c0.6-0.8,1.4-1.2,2.4-1.2c0.4,0,0.7,0.1,1,0.3c0.3,0.2,0.5,0.4,0.6,0.7h0c0-0.1,0-0.4,0.1-0.9h1c-0.2,2.8-0.4,4.3-0.4,4.3
		c0,1.1,0.3,1.6,0.9,1.6c0.6,0,1-0.3,1.4-0.9c0.4-0.6,0.6-1.4,0.6-2.3c0-1.4-0.4-2.6-1.3-3.5c-0.9-0.9-2.1-1.3-3.7-1.3
		c-1.5,0-2.8,0.5-3.8,1.6c-1,1.1-1.5,2.4-1.5,4c0,1.6,0.5,2.9,1.4,3.8c1,1,2.2,1.5,3.9,1.5c1.3,0,2.4-0.2,3.3-0.6v1
		c-0.9,0.4-2,0.6-3.3,0.6c-1.9,0-3.4-0.6-4.5-1.7s-1.7-2.6-1.7-4.5c0-1.9,0.6-3.5,1.8-4.7s2.7-1.9,4.6-1.9c1.8,0,3.2,0.5,4.4,1.6
		s1.7,2.4,1.7,4.1c0,1.2-0.3,2.2-0.9,3s-1.3,1.2-2.2,1.2C33.9,99.1,33.3,98.5,33.3,97.3z M32,93.1c-0.6,0-1.2,0.3-1.6,0.9
		c-0.4,0.6-0.6,1.4-0.6,2.3c0,0.6,0.1,1.1,0.4,1.4c0.3,0.4,0.6,0.5,1.1,0.5c0.6,0,1.1-0.3,1.5-1c0.4-0.6,0.6-1.5,0.6-2.5
		C33.4,93.6,32.9,93.1,32,93.1z"/>
	<path d="M48.5,92.5l-0.2,0.8h-2l-0.5,2.3H48l-0.2,0.8h-2.1L45,99.6h-1l0.7-3.1h-1.9l-0.7,3.1h-1l0.7-3.1h-2l0.2-0.8h2.1l0.5-2.3
		h-2.1l0.2-0.8h2.1l0.7-3.1h1l-0.7,3.1h2l0.7-3.1h1l-0.7,3.1H48.5z M45.3,93.4h-2l-0.5,2.3h2L45.3,93.4z"/>
	<path d="M53.6,100.5v1.7h-0.8v-1.6c-1.1,0-2-0.2-2.7-0.7v-1.3c0.3,0.3,0.7,0.5,1.2,0.7c0.5,0.2,1,0.3,1.5,0.3v-4
		c-1.1-0.5-1.9-1.1-2.2-1.5s-0.5-1-0.5-1.6c0-0.7,0.3-1.4,0.8-1.9c0.5-0.5,1.2-0.9,1.9-1V88h0.8v1.4c1,0,1.7,0.2,2.1,0.4v1.3
		c-0.5-0.4-1.2-0.6-2.1-0.7v4.1c1.1,0.5,1.8,1,2.2,1.5s0.6,1,0.6,1.6c0,0.7-0.2,1.3-0.7,1.8C55.2,100,54.5,100.3,53.6,100.5z
		 M52.8,94.1v-3.6c-0.4,0.1-0.8,0.3-1,0.6c-0.3,0.3-0.4,0.7-0.4,1.1c0,0.4,0.1,0.8,0.3,1.1C51.9,93.5,52.3,93.8,52.8,94.1z
		 M53.6,95.9v3.5c1-0.2,1.5-0.8,1.5-1.6C55.1,97.1,54.6,96.4,53.6,95.9z"/>
	<path d="M60.5,95c-0.8,0-1.4-0.3-1.8-0.8c-0.5-0.5-0.7-1.2-0.7-2c0-0.9,0.2-1.6,0.7-2.2c0.5-0.5,1.1-0.8,1.9-0.8
		c0.8,0,1.4,0.2,1.8,0.7s0.7,1.2,0.7,2.1c0,0.9-0.2,1.6-0.7,2.1C62,94.7,61.3,95,60.5,95z M60.6,90.1c-0.5,0-0.9,0.2-1.2,0.5
		s-0.4,0.9-0.4,1.5c0,0.6,0.1,1.1,0.4,1.5s0.7,0.5,1.1,0.5c0.5,0,0.9-0.2,1.1-0.5c0.3-0.4,0.4-0.9,0.4-1.5c0-0.6-0.1-1.1-0.4-1.5
		C61.5,90.3,61.1,90.1,60.6,90.1z M68,89.4l-7.1,11.2h-1.1l7.1-11.2H68z M67.2,100.7c-0.8,0-1.4-0.3-1.8-0.8s-0.7-1.2-0.7-2
		c0-0.9,0.2-1.6,0.7-2.2c0.5-0.5,1.1-0.8,1.9-0.8c0.8,0,1.4,0.2,1.8,0.7c0.4,0.5,0.7,1.2,0.7,2.1c0,0.9-0.2,1.6-0.7,2.1
		C68.6,100.4,67.9,100.7,67.2,100.7z M67.3,95.8c-0.5,0-0.9,0.2-1.2,0.5s-0.4,0.9-0.4,1.5c0,0.6,0.1,1.1,0.4,1.4
		c0.3,0.3,0.7,0.5,1.1,0.5c0.5,0,0.9-0.2,1.1-0.5c0.3-0.4,0.4-0.9,0.4-1.5c0-0.6-0.1-1.1-0.4-1.5C68.1,96,67.7,95.8,67.3,95.8z"/>
	<path d="M79.5,95.7h-1.2l-2.6-4.8h0l-2.4,4.8h-1.1l3.3-6.5h0.5L79.5,95.7z"/>
	<path d="M92.4,100.7c-0.3,0-0.6,0-0.8-0.1s-0.4-0.2-0.6-0.3c-0.2-0.1-0.4-0.3-0.6-0.5s-0.4-0.5-0.6-0.7c-0.2,0.2-0.4,0.4-0.7,0.6
		c-0.3,0.2-0.6,0.4-0.9,0.6s-0.7,0.3-1.1,0.4c-0.4,0.1-0.8,0.1-1.3,0.1c-0.6,0-1.1-0.1-1.5-0.2c-0.5-0.1-0.9-0.3-1.2-0.6
		c-0.3-0.3-0.6-0.6-0.8-1c-0.2-0.4-0.3-0.9-0.3-1.4c0-0.8,0.2-1.5,0.7-2s1.1-1,1.9-1.4c-0.2-0.1-0.3-0.2-0.5-0.4
		c-0.2-0.2-0.3-0.3-0.4-0.5c-0.1-0.2-0.2-0.4-0.3-0.6c-0.1-0.2-0.1-0.5-0.1-0.8c0-0.4,0.1-0.8,0.2-1.1c0.1-0.3,0.3-0.6,0.6-0.8
		c0.3-0.2,0.6-0.4,0.9-0.5c0.4-0.1,0.7-0.2,1.1-0.2c0.4,0,0.8,0.1,1.1,0.2c0.3,0.1,0.6,0.3,0.9,0.5s0.4,0.5,0.6,0.7
		c0.1,0.3,0.2,0.6,0.2,1c0,0.6-0.2,1.1-0.5,1.5c-0.4,0.4-0.9,0.8-1.6,1c0.4,0.1,0.7,0.3,1,0.5c0.3,0.2,0.6,0.4,0.8,0.7
		c0.2,0.2,0.5,0.5,0.7,0.8s0.4,0.6,0.6,0.9c0.4-0.6,0.7-1.2,0.9-1.9c0.2-0.7,0.3-1.4,0.3-2.2c0-0.2,0-0.4,0-0.6
		c0-0.2-0.1-0.3-0.1-0.5h1.2c0,0.2,0.1,0.3,0.1,0.5s0,0.3,0,0.5c0,0.5,0,0.9-0.1,1.4s-0.2,0.9-0.4,1.4s-0.4,0.9-0.6,1.3
		c-0.2,0.4-0.5,0.8-0.7,1.1c0.2,0.2,0.3,0.5,0.5,0.6s0.3,0.3,0.5,0.5c0.2,0.1,0.3,0.2,0.5,0.3c0.2,0.1,0.3,0.1,0.6,0.1
		c0.2,0,0.3,0,0.5-0.1s0.3-0.1,0.5-0.2v1.2c-0.2,0.1-0.4,0.1-0.6,0.2C92.8,100.7,92.6,100.7,92.4,100.7z M85.9,99.6
		c0.4,0,0.8,0,1.1-0.1c0.3-0.1,0.6-0.2,0.9-0.3s0.5-0.3,0.8-0.5c0.2-0.2,0.4-0.4,0.6-0.6c-0.3-0.5-0.6-0.9-0.9-1.3
		c-0.3-0.3-0.5-0.6-0.8-0.9c-0.3-0.3-0.6-0.5-0.9-0.7c-0.3-0.2-0.7-0.3-1.1-0.5c-0.3,0.1-0.6,0.3-0.9,0.4c-0.3,0.2-0.5,0.3-0.7,0.6
		c-0.2,0.2-0.4,0.5-0.5,0.7c-0.1,0.3-0.2,0.6-0.2,1c0,0.4,0.1,0.7,0.2,0.9c0.1,0.3,0.3,0.5,0.5,0.7c0.2,0.2,0.5,0.3,0.8,0.4
		C85.3,99.6,85.6,99.6,85.9,99.6z M87.9,91.7c0-0.3,0-0.5-0.1-0.7c-0.1-0.2-0.2-0.3-0.4-0.4c-0.1-0.1-0.3-0.2-0.5-0.3
		c-0.2-0.1-0.4-0.1-0.5-0.1c-0.5,0-0.9,0.1-1.2,0.4s-0.5,0.6-0.5,1.1c0,0.2,0,0.4,0.1,0.6c0.1,0.2,0.2,0.4,0.3,0.5s0.3,0.3,0.4,0.4
		s0.3,0.2,0.5,0.3c0.7-0.2,1.1-0.5,1.5-0.8S87.9,92.2,87.9,91.7z"/>
	<path d="M100,92l-2.1,0.4l1.5,1.9l-0.9,0.6l-1.2-2.1l-1.2,2.1l-0.9-0.6l1.5-1.9L94.5,92l0.3-1l2,0.8l-0.2-2.4h1.1l-0.2,2.4l2-0.8
		L100,92z"/>
	<path d="M105.2,103.1h-1.1c-1.6-1.8-2.4-4.1-2.4-6.8c0-2.7,0.8-5,2.4-6.9h1.1c-1.6,2-2.4,4.2-2.4,6.9
		C102.8,98.9,103.6,101.1,105.2,103.1z"/>
	<path d="M106.7,103.1h-1.1c1.6-1.9,2.4-4.2,2.4-6.8c0-2.6-0.8-4.9-2.4-6.9h1.1c1.6,1.9,2.4,4.2,2.4,6.9
		C109.1,99,108.3,101.2,106.7,103.1z"/>
	<path d="M116.7,102.8h-6.6v-0.9h6.6V102.8z"/>
	<path d="M125.8,96.4h-3.1v3.1h-1v-3.1h-3.1v-1h3.1v-3.1h1v3.1h3.1V96.4z"/>
	<path d="M140.7,99.5l-6.7-3.3v-0.5l6.7-3.7v1.2l-5,2.8v0l5,2.4V99.5z"/>
	<path d="M151.6,96.2l-6.7,3.3v-1.2l5-2.4v0l-5-2.8V92l6.7,3.7V96.2z"/>
	<path d="M156.2,97.4c0-0.1-0.1-0.3-0.1-0.5c0-0.2-0.1-0.4-0.1-0.6c0-0.3,0.1-0.6,0.2-0.9c0.1-0.3,0.3-0.5,0.5-0.7
		c0.2-0.2,0.4-0.5,0.6-0.7s0.4-0.4,0.6-0.7s0.4-0.4,0.5-0.7c0.1-0.2,0.2-0.5,0.2-0.8c0-0.2,0-0.5-0.1-0.7c-0.1-0.2-0.2-0.4-0.4-0.5
		c-0.2-0.1-0.4-0.2-0.6-0.3s-0.4-0.1-0.7-0.1c-0.9,0-1.6,0.3-2.3,1V90c0.8-0.5,1.6-0.7,2.5-0.7c0.4,0,0.8,0.1,1.1,0.2
		c0.3,0.1,0.6,0.3,0.9,0.5c0.3,0.2,0.5,0.5,0.6,0.8c0.1,0.3,0.2,0.7,0.2,1.1c0,0.4-0.1,0.7-0.2,1c-0.1,0.3-0.3,0.6-0.5,0.8
		c-0.2,0.3-0.4,0.5-0.7,0.7c-0.2,0.2-0.5,0.4-0.7,0.6s-0.4,0.4-0.5,0.7s-0.2,0.5-0.2,0.8c0,0.2,0,0.5,0.1,0.6
		c0.1,0.2,0.1,0.4,0.2,0.5H156.2z M156.9,100.7c-0.2,0-0.4-0.1-0.6-0.2c-0.2-0.2-0.3-0.4-0.3-0.6c0-0.2,0.1-0.4,0.3-0.6
		c0.2-0.2,0.4-0.3,0.6-0.3s0.4,0.1,0.6,0.3c0.2,0.2,0.3,0.4,0.3,0.6c0,0.2-0.1,0.4-0.3,0.6C157.4,100.6,157.2,100.7,156.9,100.7z"/>
	<path d="M162.5,94.1c-0.2,0-0.4-0.1-0.6-0.3s-0.3-0.4-0.3-0.6c0-0.2,0.1-0.4,0.3-0.6c0.2-0.2,0.4-0.2,0.6-0.2
		c0.2,0,0.4,0.1,0.6,0.2c0.2,0.2,0.3,0.4,0.3,0.6c0,0.2-0.1,0.4-0.3,0.6S162.7,94.1,162.5,94.1z M162.5,100.7
		c-0.2,0-0.4-0.1-0.6-0.3c-0.2-0.2-0.3-0.4-0.3-0.6s0.1-0.4,0.3-0.6c0.2-0.2,0.4-0.3,0.6-0.3c0.2,0,0.4,0.1,0.6,0.3
		c0.2,0.2,0.3,0.4,0.3,0.6s-0.1,0.4-0.3,0.6C162.9,100.6,162.7,100.7,162.5,100.7z"/>
	<path d="M167,89.2l-1.1,3.5H165l0.9-3.5H167z M169.4,89.2l-1.1,3.5h-0.9l0.8-3.5H169.4z"/>
	<path d="M174.5,103.1c-1.6,0-2.4-0.8-2.4-2.4v-2.3c0-1-0.4-1.6-1.2-1.6v-0.9c0.8-0.1,1.2-0.6,1.2-1.7v-2.3c0-1.6,0.8-2.4,2.4-2.4v1
		c-0.8,0-1.2,0.5-1.2,1.5v2.3c0,1.1-0.4,1.8-1.2,2v0c0.8,0.2,1.2,0.9,1.2,2v2.2c0,0.6,0.1,1,0.3,1.2c0.2,0.2,0.5,0.4,1,0.4V103.1z"
		/>
	<path d="M179.1,96.7c-0.8,0.1-1.2,0.6-1.2,1.6v2.3c0,1.6-0.8,2.4-2.4,2.4v-1c0.4,0,0.8-0.1,1-0.4c0.2-0.2,0.3-0.7,0.3-1.2v-2.2
		c0-1.1,0.4-1.8,1.2-2v0c-0.8-0.2-1.2-0.9-1.2-2v-2.3c0-1-0.4-1.5-1.2-1.5v-1c1.6,0,2.4,0.8,2.4,2.4v2.3c0,1.1,0.4,1.6,1.2,1.7V96.7
		z"/>
	<path d="M184.2,103.1h-2.9V89.4h2.9v0.9h-1.7v11.8h1.7V103.1z"/>
	<path d="M187.8,103.1H185v-0.9h1.7V90.3H185v-0.9h2.8V103.1z"/>
	<path d="M191.8,98.8l-1.2,3.8h-0.9l0.9-3.8H191.8z M191.1,94.1c-0.2,0-0.4-0.1-0.6-0.3s-0.3-0.4-0.3-0.6c0-0.2,0.1-0.4,0.3-0.6
		c0.2-0.2,0.4-0.2,0.6-0.2c0.2,0,0.4,0.1,0.6,0.2c0.2,0.2,0.3,0.4,0.3,0.6c0,0.2-0.1,0.4-0.3,0.6S191.3,94.1,191.1,94.1z"/>
	<path d="M195.6,89.2l-1.1,3.5h-0.9l0.9-3.5H195.6z"/>
	<path d="M202.6,102.4h-1.2l-5.2-13h1.2L202.6,102.4z"/>
	<path d="M204.1,100.7c-0.2,0-0.4-0.1-0.6-0.3c-0.2-0.2-0.3-0.4-0.3-0.6s0.1-0.4,0.3-0.6c0.2-0.2,0.4-0.3,0.6-0.3
		c0.2,0,0.4,0.1,0.6,0.3c0.2,0.2,0.3,0.4,0.3,0.6s-0.1,0.4-0.3,0.6C204.6,100.6,204.4,100.7,204.1,100.7z"/>
	<path d="M208.3,98.8l-1.2,3.8h-0.9l0.9-3.8H208.3z"/>
	<path d="M215.6,89.4l-5.3,13h-1.2l5.3-13H215.6z"/>
</g>
</svg>
