<?xml version="1.0" encoding="utf-8"?>
<!-- Generator: Adobe Illustrator 21.0.0, SVG Export Plug-In . SVG Version: 6.00 Build 0)  -->
<svg version="1.1" id="Layer_1" xmlns="http://www.w3.org/2000/svg" xmlns:xlink="http://www.w3.org/1999/xlink" x="0px" y="0px"
	 viewBox="0 0 42 42" style="enable-background:new 0 0 42 42;" xml:space="preserve">
<style type="text/css">
	.st0{fill:#014458;}
	.st1{opacity:0.45;}
	.st2{opacity:8.000000e-02;}
	.st3{fill:#226071;}
	.st4{fill:#0E272E;}
	.st5{fill:#FFFFFF;}
	.st6{display:none;}
</style>
<g>
	<g>
		<g>
			<path class="st0" d="M41.1,17C39.3,7.6,31,0.5,21,0.5C9.7,0.5,0.5,9.7,0.5,21c0,0.1,0,0.2,0,0.3c0,1.4,0.2,2.9,0.5,4.2
				c2,9.2,10.2,16,20,16c11.3,0,20.4-9.1,20.5-20.3c0-0.1,0-0.1,0-0.2C41.5,19.6,41.4,18.3,41.1,17z"/>
		</g>
		<g class="st1">
			<path d="M21,41.1c-9.8,0-18-6.9-20-16c-0.3-1.4-0.5-2.8-0.5-4.2c0,0.1,0,0.1,0,0.1c0,1.5,0.2,3,0.5,4.5c2,9.2,10.2,16,20,16
				c11.3,0,20.5-9.2,20.5-20.5c0-0.1,0-0.1,0-0.2C41.4,32,32.3,41.1,21,41.1z"/>
		</g>
		<path class="st2" d="M13.4,28.2l17.5,10.3c0,0,8.3-4.4,10.2-14L29,13L13.4,28.2z"/>
	</g>
</g>
<g>
	<g>
		<g>
			<path class="st3" d="M13,15.8v11.3c0,1,0.8,1.9,1.9,1.9h12.2c1,0,1.9-0.8,1.9-1.9V15.8H13z"/>
		</g>
		<g>
			<rect x="13" y="13" class="st4" width="16" height="2.8"/>
		</g>
		<path class="st5" d="M21.3,26.8h-0.6c-0.6,0-1-0.4-1-1v-0.6c0-0.6,0.4-1,1-1h0.6c0.6,0,1,0.4,1,1v0.6
			C22.3,26.3,21.9,26.8,21.3,26.8z"/>
		<path class="st5" d="M21.3,23.3h-0.6c-0.6,0-1-0.4-1-1v-0.6c0-0.6,0.4-1,1-1h0.6c0.6,0,1,0.4,1,1v0.6
			C22.3,22.8,21.9,23.3,21.3,23.3z"/>
		<g>
			<path class="st4" d="M22.2,24.8L22,24.6c0,0-0.1,0-0.1,0l-1.2,1.2l-0.5-0.5c0,0-0.1,0-0.1,0l-0.2,0.2c0,0,0,0.1,0,0.1l0.8,0.8
				c0,0,0.1,0,0.1,0l1.4-1.4C22.2,24.9,22.2,24.8,22.2,24.8z"/>
		</g>
		<g>
			<path class="st4" d="M22.2,21.3L22,21.1c0,0-0.1,0-0.1,0l-1.2,1.2l-0.5-0.5c0,0-0.1,0-0.1,0l-0.2,0.2c0,0,0,0.1,0,0.1l0.8,0.8
				c0,0,0.1,0,0.1,0l1.4-1.4C22.2,21.4,22.2,21.3,22.2,21.3z"/>
		</g>
		<g>
			<path class="st5" d="M26.6,19.7H26c-0.6,0-1-0.4-1-1v-0.6c0-0.6,0.4-1,1-1h0.6c0.6,0,1,0.4,1,1v0.6
				C27.6,19.3,27.1,19.7,26.6,19.7z"/>
			<g>
				<path class="st4" d="M27.4,17.7l-0.2-0.2c0,0-0.1,0-0.1,0L26,18.8l-0.5-0.5c0,0-0.1,0-0.1,0l-0.2,0.2c0,0,0,0.1,0,0.1l0.8,0.8
					c0,0,0.1,0,0.1,0l1.4-1.4C27.5,17.8,27.5,17.8,27.4,17.7z"/>
			</g>
			<g>
				<path class="st5" d="M21.3,19.7h-0.6c-0.6,0-1-0.4-1-1v-0.6c0-0.6,0.4-1,1-1h0.6c0.6,0,1,0.4,1,1v0.6
					C22.3,19.3,21.9,19.7,21.3,19.7z"/>
				<g>
					<path class="st4" d="M20.7,19.1l-0.6-0.6c0,0,0-0.1,0-0.1l0.1-0.1c0,0,0.1,0,0.1,0l0.4,0.4l0.9-0.9c0,0,0.1,0,0.1,0l0.1,0.1
						c0,0,0,0.1,0,0.1l-1.1,1.1C20.8,19.1,20.7,19.1,20.7,19.1L20.7,19.1z"/>
				</g>
			</g>
			<g>
				<path class="st5" d="M16,19.7h-0.6c-0.6,0-1-0.4-1-1v-0.6c0-0.6,0.4-1,1-1H16c0.6,0,1,0.4,1,1v0.6C17,19.3,16.6,19.7,16,19.7z"
					/>
				<g>
					<path class="st4" d="M16.9,17.7l-0.2-0.2c0,0-0.1,0-0.1,0l-1.2,1.2l-0.5-0.5c0,0-0.1,0-0.1,0l-0.2,0.2c0,0,0,0.1,0,0.1l0.8,0.8
						c0,0,0.1,0,0.1,0l1.4-1.4C16.9,17.8,16.9,17.8,16.9,17.7z"/>
				</g>
			</g>
		</g>
	</g>
	<path class="st6" d="M19.7,24.8l-1.6-1.6c-0.1-0.1-0.1-0.2,0-0.3l0.3-0.3c0.1-0.1,0.2-0.1,0.3,0l1.6,1.6c0.1,0.1,0.1,0.2,0,0.3
		L20,24.8C19.9,24.9,19.8,24.9,19.7,24.8z"/>
	<path class="st6" d="M19.8,23.8l2.6-2.6c0.1-0.1,0.2-0.1,0.3,0l0.3,0.3c0.1,0.1,0.1,0.2,0,0.3l-2.6,2.6c-0.1,0.1-0.2,0.1-0.3,0
		l-0.3-0.3C19.7,24,19.7,23.9,19.8,23.8z"/>
</g>
</svg>
